# xmcd
#
# Track frame offsets:
#	150
#	16281
#	30485
#	49181
#	64310
#	77064
#	93989
#	108896
#	126978
#	147157
#	170735
#	183691
#	197903
#	213831
#
# Disc length: 3056 seconds
#
# Revision: 0
# Processed by: cddbd v1.5.2PL0 Copyright (c) Steve Scherf et al.
# Submitted via: EasyCDDAExtractor 11.1.0.1
#
DISCID=c60bee0e
DTITLE=Loz Lawrey - Leaving Sadland
DYEAR=2014
DGENRE=Blues Roots
TTITLE0=Shangri-La
TTITLE1=The Company Of Others
TTITLE2=Don't Deny Me (My Human Rights)
TTITLE3=Do You Ever
TTITLE4=A Flick Of The Wrist
TTITLE5=I Will Meet You There
TTITLE6=I Wouldn't Change A Thing
TTITLE7=India
TTITLE8=Magical
TTITLE9=Sadland
TTITLE10=The Light Between The Leaves
TTITLE11=The Possibility Of Love
TTITLE12=The Thanks I Give
TTITLE13=Walk With Me
EXTD=
EXTT0=
EXTT1=
EXTT2=
EXTT3=
EXTT4=
EXTT5=
EXTT6=
EXTT7=
EXTT8=
EXTT9=
EXTT10=
EXTT11=
EXTT12=
EXTT13=
PLAYORDER=
